<svg width="60" height="60" viewBox="0 0 60 60" fill="none" xmlns="http://www.w3.org/2000/svg">
<g clip-path="url(#clip0_2068_132)">
<path d="M33.18 60H26.82C25.588 60 24.532 59.164 24.25 57.966C23.678 55.526 23.382 54.266 23.23 53.606C22.09 53.206 19.688 52.33 18.054 51.49C17.182 52.032 15.506 53.08 14.296 53.838C13.244 54.488 11.906 54.334 11.036 53.464L6.54001 48.968C5.67001 48.098 5.51401 46.758 6.16201 45.712C7.48401 43.588 8.16801 42.49 8.52801 41.914C8.00201 40.83 6.92401 38.53 6.35801 36.76C5.35801 36.526 3.43201 36.078 2.04001 35.754H2.03601C0.838014 35.47 0.00201416 34.414 0.00201416 33.184V26.824C0.00201416 25.594 0.838014 24.536 2.03601 24.254C3.43001 23.93 5.35801 23.482 6.35801 23.248C6.92401 21.478 8.00201 19.178 8.52801 18.094C8.16801 17.518 7.48201 16.42 6.16201 14.298C5.51201 13.248 5.66801 11.91 6.53801 11.04L11.034 6.54398C11.904 5.67398 13.244 5.51798 14.29 6.16598C16.414 7.48798 17.512 8.17198 18.088 8.53198C19.172 8.00598 21.472 6.92798 23.242 6.36198C23.476 5.36198 23.924 3.43598 24.248 2.04398C24.532 0.841982 25.588 0.00598145 26.818 0.00598145H33.178C34.41 0.00598145 35.466 0.841982 35.748 2.03998C36.32 4.47998 36.616 5.73998 36.768 6.39998C37.908 6.79998 40.31 7.67598 41.944 8.51598C42.816 7.97398 44.492 6.92598 45.702 6.16798C46.754 5.51798 48.092 5.67198 48.962 6.54198L53.458 11.038C54.328 11.908 54.484 13.248 53.836 14.294C52.514 16.418 51.83 17.516 51.47 18.092C51.996 19.176 53.074 21.476 53.64 23.246C54.64 23.48 56.566 23.928 57.958 24.252C59.16 24.536 59.996 25.592 59.996 26.822V33.182C59.996 34.412 59.16 35.47 57.962 35.752C55.524 36.324 54.262 36.62 53.602 36.772C53.202 37.912 52.326 40.314 51.486 41.948C52.028 42.82 53.076 44.496 53.834 45.706C54.484 46.758 54.33 48.096 53.458 48.968L48.962 53.464C48.092 54.334 46.752 54.49 45.706 53.842C43.582 52.52 42.484 51.836 41.908 51.476C40.824 52.002 38.524 53.08 36.754 53.646C36.52 54.646 36.072 56.572 35.748 57.964C35.464 59.166 34.408 60.002 33.178 60.002L33.18 60ZM25.428 52.454C25.484 52.704 26.148 55.544 26.586 57.414C26.612 57.522 26.708 57.598 26.82 57.598H33.18C33.292 57.598 33.388 57.522 33.414 57.414L33.996 54.914C34.142 54.288 34.288 53.662 34.398 53.192L34.532 52.622C34.724 51.81 35.176 51.562 35.534 51.5C37.618 50.95 41.404 49.046 41.442 49.026C41.832 48.83 42.296 48.86 42.654 49.102C42.868 49.24 45.344 50.782 46.976 51.798C47.068 51.856 47.19 51.842 47.27 51.762L51.766 47.266C51.846 47.186 51.86 47.066 51.8 46.97L50.442 44.796C50.102 44.25 49.76 43.706 49.506 43.296L49.198 42.8C48.758 42.088 48.902 41.592 49.112 41.296C50.172 39.478 51.536 35.408 51.55 35.368C51.688 34.956 52.036 34.654 52.458 34.57C52.708 34.516 55.548 33.85 57.418 33.41C57.526 33.384 57.602 33.288 57.602 33.176V26.816C57.602 26.704 57.526 26.608 57.418 26.582L54.918 26C54.292 25.854 53.666 25.708 53.196 25.598L52.626 25.464C51.814 25.272 51.566 24.82 51.504 24.462C50.954 22.378 49.05 18.592 49.03 18.554C48.834 18.164 48.864 17.7 49.106 17.342C49.244 17.128 50.786 14.652 51.802 13.02C51.86 12.928 51.846 12.806 51.766 12.726L47.27 8.22998C47.19 8.14998 47.068 8.13798 46.974 8.19598L44.8 9.55598C44.254 9.89598 43.71 10.236 43.3 10.492L42.804 10.8C42.092 11.242 41.596 11.096 41.3 10.884C39.482 9.82398 35.414 8.45998 35.372 8.44598C34.96 8.30798 34.658 7.95998 34.574 7.53798C34.518 7.28798 33.854 4.44798 33.416 2.57798C33.39 2.46998 33.294 2.39398 33.182 2.39398H26.822C26.71 2.39398 26.614 2.46998 26.588 2.57798L26.006 5.07798C25.86 5.70398 25.714 6.32998 25.604 6.79998L25.47 7.36998C25.278 8.18198 24.826 8.42998 24.468 8.49198C22.384 9.04198 18.598 10.946 18.56 10.966C18.17 11.162 17.706 11.132 17.348 10.89C17.134 10.752 14.658 9.20998 13.026 8.19398C12.934 8.13598 12.812 8.14998 12.732 8.22998L8.23601 12.726C8.15601 12.806 8.14201 12.926 8.20201 13.022C9.21601 14.65 10.758 17.126 10.896 17.342C11.138 17.7 11.17 18.164 10.972 18.554C10.952 18.592 9.04801 22.378 8.49801 24.462C8.43601 24.82 8.19001 25.272 7.37601 25.464L6.80601 25.598C6.33601 25.708 5.71001 25.854 5.08401 26L2.58001 26.582C2.47401 26.606 2.39801 26.702 2.39801 26.814V33.174C2.39801 33.286 2.47401 33.382 2.58201 33.408L5.08201 33.99C5.70801 34.136 6.33401 34.282 6.80401 34.392L7.37401 34.526C8.18601 34.718 8.43401 35.17 8.49601 35.528C9.04601 37.612 10.95 41.398 10.97 41.436C11.166 41.826 11.136 42.29 10.894 42.648C10.756 42.862 9.21401 45.338 8.19801 46.97C8.14001 47.062 8.15401 47.184 8.23401 47.264L12.73 51.76C12.81 51.84 12.932 51.852 13.026 51.794L15.2 50.434C15.746 50.094 16.29 49.754 16.7 49.498L17.196 49.19C17.908 48.748 18.404 48.894 18.7 49.106C20.518 50.166 24.586 51.53 24.628 51.544C25.04 51.682 25.342 52.03 25.426 52.452L25.428 52.454Z" fill="#4CA6FF"/>
<path d="M30 48C20.074 48 12 39.926 12 30C12 20.074 20.074 12 30 12C39.926 12 48 20.074 48 30C48 39.926 39.926 48 30 48ZM30 14.4C21.398 14.4 14.4 21.398 14.4 30C14.4 38.602 21.398 45.6 30 45.6C38.602 45.6 45.6 38.602 45.6 30C45.6 21.398 38.602 14.4 30 14.4Z" fill="#4CA6FF"/>
</g>
<defs>
<clipPath id="clip0_2068_132">
<rect width="60" height="60" fill="white"/>
</clipPath>
</defs>
</svg>
